<svg width="16" height="20" viewBox="0 0 16 20" fill="none" xmlns="http://www.w3.org/2000/svg">
<path d="M4.38438 0.479261L3.52518 0.738461C2.75885 0.969302 2.07443 1.41429 1.5525 2.02104C1.03058 2.62779 0.692884 3.37104 0.579176 4.16326C0.222776 6.64486 1.01958 9.54646 2.94078 12.8741C4.85718 16.1933 6.96678 18.3317 9.28878 19.2677C10.0348 19.5683 10.8516 19.6485 11.6419 19.4985C12.4321 19.3485 13.1627 18.9748 13.7468 18.4217L14.3984 17.8049C14.8205 17.405 15.0832 16.8655 15.1375 16.2865C15.1918 15.7076 15.034 15.1286 14.6936 14.6573L13.0664 12.4013C12.8464 12.0967 12.5366 11.8686 12.1805 11.7489C11.8243 11.6293 11.4396 11.6241 11.0804 11.7341L8.61918 12.4865L8.55558 12.4985C8.28438 12.5381 7.65918 11.9513 6.87918 10.6001C6.06318 9.18646 5.89278 8.35966 6.11838 8.14606L7.37118 6.97846C7.82867 6.55167 8.14109 5.99238 8.26462 5.37904C8.38815 4.7657 8.31659 4.12907 8.05998 3.55846L7.26798 1.79326C7.02905 1.26155 6.60477 0.834966 6.07436 0.593166C5.54394 0.351366 4.94366 0.310878 4.38558 0.479261H4.38438ZM6.17238 2.28526L6.96558 4.05046C7.11982 4.39274 7.16295 4.77474 7.08891 5.14279C7.01487 5.51085 6.82738 5.84645 6.55278 6.10246L5.29758 7.27126C4.49358 8.03086 4.75998 9.33046 5.83878 11.2001C6.85518 12.9593 7.78158 13.8281 8.77638 13.6769L8.92518 13.6457L11.4308 12.8813C11.5505 12.8445 11.6788 12.8461 11.7976 12.8859C11.9164 12.9257 12.0198 13.0017 12.0932 13.1033L13.7204 15.3593C13.8908 15.595 13.9697 15.8846 13.9426 16.1742C13.9154 16.4638 13.784 16.7337 13.5728 16.9337L12.9212 17.5505C12.504 17.9453 11.9822 18.2121 11.4179 18.319C10.8535 18.426 10.2703 18.3688 9.73758 18.1541C7.69998 17.3333 5.77398 15.3809 3.97998 12.2741C2.18238 9.16006 1.45518 6.51166 1.76718 4.33366C1.84835 3.76763 2.08959 3.23659 2.4625 2.80309C2.8354 2.36959 3.32443 2.0517 3.87198 1.88686L4.73238 1.62766C5.01133 1.54384 5.31124 1.56434 5.57619 1.68533C5.84114 1.80633 6.05304 2.01956 6.17238 2.28526Z" fill="#828282"/>
</svg>
