<svg width="40" height="40" viewBox="0 0 40 40" fill="none" xmlns="http://www.w3.org/2000/svg">
<path d="M28.3333 6.66675C30.5434 6.66675 32.663 7.54472 34.2258 9.10752C35.7886 10.6703 36.6666 12.7899 36.6666 15.0001C36.6666 17.3001 35.7333 19.3834 34.2333 20.9001L19.9999 35.1167L5.76659 20.9001C4.26659 19.3834 3.33325 17.3001 3.33325 15.0001C3.33325 12.7899 4.21123 10.6703 5.77403 9.10752C7.33683 7.54472 9.45645 6.66675 11.6666 6.66675C13.9666 6.66675 16.0499 7.60008 17.5666 9.10008L19.9999 11.5501L22.4333 9.10008C23.9499 7.60008 26.0333 6.66675 28.3333 6.66675ZM25.9833 12.6501L15.2833 23.3334L19.9999 28.0501L30.6833 17.3501C31.2999 16.7501 31.6666 15.9167 31.6666 15.0001C31.6666 14.116 31.3154 13.2682 30.6903 12.6431C30.0652 12.0179 29.2173 11.6667 28.3333 11.6667C27.4166 11.6667 26.5833 12.0334 25.9833 12.6501ZM14.0166 12.6501C13.4166 12.0334 12.5833 11.6667 11.6666 11.6667C10.7825 11.6667 9.93468 12.0179 9.30956 12.6431C8.68444 13.2682 8.33325 14.116 8.33325 15.0001C8.33325 15.9167 8.69992 16.7501 9.31659 17.3501L11.7499 19.8001L16.4666 15.0834L14.0166 12.6501Z" fill="#F178B6"/>
</svg>
