<svg width="40" height="40" viewBox="0 0 40 40" fill="none" xmlns="http://www.w3.org/2000/svg">
<path d="M32.5 7.5C31.1383 8.80325 29.5184 9.8065 27.745 10.445C25.875 10.775 20.7 8.375 18.15 10.825C17.725 11.25 17.2 11.675 16.65 12.1C15.45 11.575 13.6 10.775 12.25 10C10.9 9.225 7.5 7.5 7.5 7.5L0 16.25C0 16.25 1.85 18.75 3 20.4C3.75 21.5 4.675 23.175 5.275 24.3L4.425 25.3C4.22145 25.7044 4.14821 26.1619 4.21536 26.6096C4.28252 27.0573 4.48676 27.4732 4.8 27.8C5.16155 28.0711 5.60146 28.2172 6.05334 28.2163C6.50521 28.2154 6.94453 28.0675 7.305 27.795C7.17134 27.9515 7.07019 28.133 7.00743 28.329C6.94468 28.525 6.92159 28.7316 6.93951 28.9366C6.95743 29.1416 7.016 29.341 7.1118 29.5232C7.2076 29.7053 7.33872 29.8666 7.4975 29.9975C7.87926 30.2205 8.31358 30.3375 8.75568 30.3367C9.19778 30.3358 9.63163 30.217 10.0125 29.9925C9.72686 30.3485 9.57057 30.791 9.5692 31.2474C9.56784 31.7039 9.72149 32.1473 10.005 32.505C10.3735 32.6326 10.7666 32.6732 11.1534 32.6238C11.5402 32.5744 11.9104 32.4362 12.235 32.22C12.0733 32.6027 12.0314 33.0255 12.1149 33.4326C12.1983 33.8396 12.4032 34.2118 12.7025 34.5C13.1253 34.6879 13.5888 34.7653 14.0497 34.7251C14.5106 34.6848 14.9537 34.5283 15.3375 34.27L16.6275 33.1025C17.8075 34.2775 19.435 35.005 21.2325 35.005L21.385 35.0025C21.9774 34.9519 22.5448 34.7412 23.0266 34.3929C23.5084 34.0445 23.8863 33.5717 24.12 33.025C24.485 33.165 24.9 33.26 25.34 33.26C25.93 33.26 26.4775 33.09 26.94 32.7975C28.4025 31.83 28.0525 31.08 28.0525 31.08C28.5725 31.3039 29.1502 31.3569 29.7023 31.2316C30.2545 31.1063 30.7526 30.809 31.125 30.3825C31.512 29.9866 31.756 29.473 31.8185 28.9229C31.881 28.3728 31.7584 27.8176 31.47 27.345C31.4858 27.3544 31.5041 27.3588 31.5225 27.3575C32.575 27.3575 33.49 26.7775 33.9675 25.9225C34.2025 25.3148 34.2819 24.6581 34.1985 24.0119C34.1151 23.3657 33.8716 22.7506 33.49 22.2225L33.4975 22.235C35.5475 21.835 35.4725 20.81 36.4725 19.31C37.4194 18.0859 38.5975 17.0598 39.94 16.29L32.5 7.5ZM32.375 25.15C31.275 26.25 30.425 25.775 28.55 24.35C26.675 22.925 22.95 20.25 22.95 20.25C23.1025 21.0125 23.455 21.675 23.9525 22.2025C24.75 23.1 27.125 25.15 28.25 26.2C28.95 26.85 30.75 28.15 29.7 29.15C28.65 30.15 27.825 29.15 26.1 27.75C24.375 26.35 20.525 22.9 20.525 22.9C20.5038 23.2307 20.553 23.5621 20.6693 23.8724C20.7857 24.1827 20.9666 24.4648 21.2 24.7C21.625 25.2 24 27.5 25 28.55C26 29.6 26.875 30.225 26.025 31.05C25.175 31.875 23.45 30.575 22.5 29.6C21.025 28.175 18.1 25.525 18.1 25.525L18.0975 25.6575C18.0975 26.3675 18.3425 27.0175 18.755 27.5325C19.475 28.4775 20.875 29.7025 21.725 30.6525C22.575 31.6025 23.075 32.4025 21.725 33.1525C20.375 33.9025 18.375 32.0525 17.5 31.1525V31.1475C17.5002 30.9006 17.4114 30.6618 17.25 30.475C16.951 30.198 16.582 30.0078 16.1829 29.925C15.7837 29.8422 15.3696 29.8698 14.985 30.005C15.1432 29.8633 15.2701 29.6901 15.3574 29.4965C15.4447 29.3029 15.4905 29.0932 15.4919 28.8808C15.4933 28.6685 15.4503 28.4581 15.3656 28.2634C15.2809 28.0686 15.1563 27.8938 15 27.75C14.6718 27.5014 14.2713 27.367 13.8596 27.3675C13.4479 27.3679 13.0476 27.5031 12.72 27.7525C12.8857 27.5943 13.0135 27.4007 13.0941 27.1863C13.1747 26.9719 13.206 26.742 13.1856 26.5138C13.1652 26.2857 13.0936 26.065 12.9762 25.8683C12.8588 25.6716 12.6986 25.5038 12.5075 25.3775C12.06 25.0963 11.5348 24.9642 11.0075 25.0001C10.4801 25.036 9.97776 25.2382 9.5725 25.5775C9.84335 25.2492 9.97689 24.829 9.94521 24.4046C9.91353 23.9802 9.71909 23.5844 9.4025 23.3C9.00904 22.9338 8.50763 22.7047 7.97321 22.647C7.43878 22.5894 6.90004 22.7062 6.4375 22.98L4.775 20.1725C3.625 18.3475 2.275 16.4475 2.275 16.4475L7.975 9.5225C7.975 9.5225 10 10.7725 11.675 11.7225C12.5 12.1975 13.925 12.8225 15 13.3225C13.3 14.5975 11.875 15.8225 12.3 16.6725C13.0574 17.2162 13.9625 17.5161 14.8947 17.5322C15.8269 17.5482 16.7418 17.2797 17.5175 16.7625C18.5121 16.1013 19.6807 15.7506 20.875 15.755C21.7425 15.755 22.5675 15.935 23.315 16.2625C24.7 17.1975 27.25 19.4975 29.575 20.9475C32.5 23.0725 33.075 24.4475 32.375 25.1475V25.15Z" fill="#7879F1"/>
</svg>
