<svg width="27" height="20" viewBox="0 0 27 20" fill="none" xmlns="http://www.w3.org/2000/svg">
<path fill-rule="evenodd" clip-rule="evenodd" d="M0.666626 18.6667C0.666626 18.4899 0.736864 18.3203 0.861888 18.1953C0.986913 18.0702 1.15648 18 1.33329 18H25.3333C25.5101 18 25.6797 18.0702 25.8047 18.1953C25.9297 18.3203 26 18.4899 26 18.6667C26 18.8435 25.9297 19.013 25.8047 19.1381C25.6797 19.2631 25.5101 19.3333 25.3333 19.3333H1.33329C1.15648 19.3333 0.986913 19.2631 0.861888 19.1381C0.736864 19.013 0.666626 18.8435 0.666626 18.6667Z" fill="white"/>
<path fill-rule="evenodd" clip-rule="evenodd" d="M5.99996 9.43967V17.9997H22V9.43967L14 4.86834L5.99996 9.44034V9.43967ZM4.66663 8.66634V19.333H23.3333V8.66634L14 3.33301L4.66663 8.66634Z" fill="white"/>
<path d="M16.6666 10.6665H20.6666V17.9998H16.6666V10.6665Z" fill="white"/>
<path d="M7.33325 10.6665H14.6666V14.6665H7.33325V10.6665Z" fill="white"/>
<path d="M19.3333 3.87867V2H21.3333V5.33333L19.3333 3.87867Z" fill="white"/>
<path fill-rule="evenodd" clip-rule="evenodd" d="M18.6666 1.99967C18.6666 1.82286 18.7369 1.65329 18.8619 1.52827C18.9869 1.40325 19.1565 1.33301 19.3333 1.33301H21.3333C21.5101 1.33301 21.6797 1.40325 21.8047 1.52827C21.9297 1.65329 22 1.82286 22 1.99967V5.33301C22 5.45598 21.966 5.57656 21.9017 5.68141C21.8375 5.78626 21.7455 5.8713 21.6359 5.92712C21.5263 5.98294 21.4035 6.00737 21.2809 5.9977C21.1583 5.98803 21.0408 5.94465 20.9413 5.87234L18.9413 4.41767C18.8562 4.35582 18.787 4.27471 18.7392 4.18097C18.6915 4.08724 18.6666 3.98353 18.6666 3.87834V1.99967ZM20 2.66634V3.53901L20.6666 4.02367V2.66634H20Z" fill="white"/>
<path fill-rule="evenodd" clip-rule="evenodd" d="M13.6619 0.75854C13.7644 0.69828 13.8811 0.666504 13.9999 0.666504C14.1188 0.666504 14.2355 0.69828 14.3379 0.75854L26.2459 7.76321L25.5699 8.91254L13.9999 2.10654L2.42991 8.91321L1.75391 7.76387L13.6619 0.759207V0.75854Z" fill="white"/>
</svg>
