<svg width="22" height="19" viewBox="0 0 22 19" fill="none" xmlns="http://www.w3.org/2000/svg">
<path d="M21.3207 4.17009C21.1996 3.69637 21.0128 3.24195 20.7657 2.82009C20.5283 2.38123 20.2247 1.98155 19.8657 1.63509C19.3451 1.11629 18.7287 0.703632 18.0507 0.420087C16.6859 -0.140029 15.1554 -0.140029 13.7907 0.420087C13.1498 0.691344 12.561 1.07202 12.0507 1.54509L11.9757 1.63509L11.0007 2.61009L10.0257 1.63509L9.95066 1.54509C9.44029 1.07202 8.85151 0.691344 8.21066 0.420087C6.84589 -0.140029 5.31542 -0.140029 3.95066 0.420087C3.27263 0.703632 2.6562 1.11629 2.13566 1.63509C1.4237 2.32783 0.919713 3.20591 0.680656 4.17009C0.553478 4.65972 0.492932 5.16427 0.500656 5.67009C0.500656 6.14559 0.560656 6.61959 0.680656 7.08009C0.806406 7.54515 0.987712 7.99338 1.22066 8.41509C1.47223 8.8486 1.77988 9.24703 2.13566 9.60009L11.0007 18.4651L19.8657 9.60009C20.2212 9.25059 20.5257 8.85009 20.7657 8.41509C21.2528 7.58275 21.5067 6.63451 21.5007 5.67009C21.5084 5.16427 21.4479 4.65971 21.3207 4.17009V4.17009ZM19.8207 6.61509C19.641 7.30046 19.284 7.92645 18.7857 8.43009L10.9707 16.2301L3.15566 8.43009C2.90099 8.17361 2.67928 7.8864 2.49566 7.57509C2.32287 7.2671 2.18693 6.93985 2.09066 6.60009C2.0138 6.26036 1.97357 5.91338 1.97066 5.56509C1.97269 5.20683 2.01292 4.84981 2.09066 4.50009C2.18411 4.15935 2.32018 3.83176 2.49566 3.52509C2.67566 3.21009 2.89766 2.92509 3.15566 2.67009C3.541 2.2899 3.9937 1.98471 4.49066 1.77009C5.49208 1.36947 6.60924 1.36947 7.61066 1.77009C8.10566 1.97559 8.55266 2.27709 8.93066 2.65509L10.9707 4.71009L13.0107 2.65509C13.3884 2.27642 13.8369 1.97571 14.3307 1.77009C15.3321 1.36947 16.4492 1.36947 17.4507 1.77009C17.9472 1.98459 18.4002 2.29059 18.7857 2.67009C19.0467 2.91759 19.2657 3.20559 19.4307 3.52509C19.7781 4.13778 19.9591 4.83075 19.9557 5.53509C19.9761 5.89752 19.9458 6.26103 19.8657 6.61509H19.8207V6.61509Z" fill="#828282"/>
</svg>
