<svg width="24" height="24" viewBox="0 0 24 24" fill="none" xmlns="http://www.w3.org/2000/svg">
<path d="M4.5 3C4.10775 3 3.70575 3.138 3.4215 3.42225C3.138 3.705 3 4.107 3 4.5V12.75C3 14.8425 4.239 16.5877 6 17.6955V21H17.25V17.6955C19.011 16.5877 20.25 14.8418 20.25 12.75V12H10.5V4.5C10.5 4.10775 10.362 3.70575 10.0778 3.4215C9.795 3.138 9.393 3 9 3H4.5ZM4.5 4.5H9V12H4.5V4.5ZM6 6V8.25H7.5V6H6ZM4.734 13.5H18.5153C18.249 14.7952 17.49 15.9375 16.1483 16.6642L15.75 16.875V19.5H7.5V16.875L7.10175 16.6642C5.75925 15.9375 5.001 14.7952 4.73475 13.5H4.734Z" fill="#828282"/>
</svg>
