<svg width="40" height="40" viewBox="0 0 40 40" fill="none" xmlns="http://www.w3.org/2000/svg">
<path d="M33.3334 5H8.33337C5.57671 5 3.33337 7.24333 3.33337 10V30C3.33337 32.7567 5.57671 35 8.33337 35H33.3334C35.1717 35 36.6667 33.505 36.6667 31.6667V8.33333C36.6667 6.495 35.1717 5 33.3334 5ZM8.33337 31.6667C7.41337 31.6667 6.66671 30.9183 6.66671 30V10C6.66671 9.08167 7.41337 8.33333 8.33337 8.33333H33.3334V13.3333H23.3334C21.495 13.3333 20 14.8283 20 16.6667V23.3333C20 25.1717 21.495 26.6667 23.3334 26.6667H33.335V31.6667H8.33337ZM33.3334 16.6667V23.3333H23.3334V16.6667H33.3334Z" fill="#27AE60"/>
</svg>
